<svg xmlns="http://www.w3.org/2000/svg" width="18" height="22" viewBox="0 0 18 22">
    <g fill="#0B8071" fill-rule="nonzero" stroke="#0B8071">
        <path d="M9.027 15.58a.294.294 0 0 1-.294-.294V8.65a.294.294 0 1 1 .588 0v6.635a.294.294 0 0 1-.294.294z"/>
        <path d="M11.564 11.482a.295.295 0 0 1-.208-.086L9.027 9.067l-2.329 2.329a.294.294 0 0 1-.416-.416L8.82 8.443a.294.294 0 0 1 .416 0l2.537 2.537a.294.294 0 0 1-.208.502z"/>
        <g>
            <path d="M15.458 20.584H2.598c-.812 0-1.472-.66-1.472-1.47V2.47c0-.812.66-1.471 1.471-1.471h9.34a.294.294 0 0 1 0 .588h-9.34a.883.883 0 0 0-.882.883v16.643c0 .486.396.882.882.882h12.86a.883.883 0 0 0 .883-.882V6.12a.294.294 0 0 1 .588 0v12.994c0 .81-.66 1.47-1.47 1.47z"/>
            <path d="M16.634 6.414h-4.698a.294.294 0 0 1-.294-.294V1.422a.294.294 0 0 1 .589 0v4.403h4.403a.294.294 0 0 1 0 .59z"/>
            <path d="M16.634 6.414a.295.295 0 0 1-.21-.089L11.726 1.5a.294.294 0 0 1 .422-.41l4.697 4.825a.294.294 0 0 1-.21.5z"/>
        </g>
    </g>
</svg>
