<svg xmlns="http://www.w3.org/2000/svg" width="20" height="13" viewBox="0 0 20 13">
    <g fill="#0B8071" fill-rule="nonzero">
        <path d="M19.873 6.105C19.694 5.857 15.437.033 10 .033 4.563.033.305 5.857.127 6.105a.678.678 0 0 0 0 .79c.178.248 4.436 6.072 9.873 6.072 5.437 0 9.694-5.824 9.873-6.072a.677.677 0 0 0 0-.79zM10 11.63c-4.005 0-7.474-3.866-8.5-5.13C2.524 5.236 5.985 1.372 10 1.372c4.005 0 7.473 3.865 8.5 5.13-1.025 1.264-4.486 5.128-8.5 5.128z"/>
        <path d="M10 2.486c-2.181 0-3.956 1.8-3.956 4.014 0 2.213 1.775 4.014 3.956 4.014s3.956-1.8 3.956-4.014c0-2.213-1.775-4.014-3.956-4.014zm0 6.69c-1.454 0-2.637-1.2-2.637-2.676 0-1.476 1.183-2.676 2.637-2.676s2.637 1.2 2.637 2.676c0 1.476-1.183 2.676-2.637 2.676z"/>
    </g>
</svg>
