<svg xmlns="http://www.w3.org/2000/svg" xmlns:xlink="http://www.w3.org/1999/xlink" width="202" height="40" viewBox="0 0 202 40">
    <defs>
        <path id="a" d="M0 .398h60.464v39.054H0z"/>
    </defs>
    <g fill="none" fill-rule="evenodd">
        <g transform="translate(0 .15)">
            <mask id="b" fill="#fff">
                <use xlink:href="#a"/>
            </mask>
            <path fill="#098071" d="M54.978 35.681a3.481 3.481 0 0 1-1.49.338c-1.37 0-2.631-.807-3.21-2.043l-5.675-12.142L44 20.546l-.287-.618 3.904-8.366.287.613.602 1.293 8.185 17.521a3.53 3.53 0 0 1-1.714 4.692zM39.92 19.922l-.888 1.9-5.675 12.142a3.571 3.571 0 0 1-1.697 1.7c-.017.011-.034.017-.045.023a3.49 3.49 0 0 1-3.554-.504 2.613 2.613 0 0 1-.196-.16c-.028-.028-.057-.051-.085-.08a1.575 1.575 0 0 1-.212-.229 1.07 1.07 0 0 1-.15-.183 3.192 3.192 0 0 1-.538-.956c-.012-.023-.018-.051-.023-.074l-.183-.395-2.26-4.835v-.006l-3.031-6.488-.603-1.294-.286-.612 3.904-8.36.286.612.608 1.293 3.032 6.49v.005l1.897 4.051 4.907-10.506.889-1.894 2.442-5.235.212-.452a3.084 3.084 0 0 1 .298-.504 3.544 3.544 0 0 1 2.918-1.54 3.556 3.556 0 0 1 2.057.664 3.516 3.516 0 0 1 1.261 1.666c.07.183.121.366.15.555a3.467 3.467 0 0 1-.264 2.145l-3.273 7.004-1.898 4.057zm-21.33-4.114l-1.89 4.057-3.974 8.498A6.886 6.886 0 0 0 9.93 26a6.919 6.919 0 0 0-3.618-.625l6.478-13.864 2.448-5.242.211-.452c.052-.114.115-.223.178-.326.034-.069.08-.126.126-.188a3.536 3.536 0 0 1 2.912-1.529 3.5 3.5 0 0 1 1.49.338c.196.091.385.2.557.326a3.48 3.48 0 0 1 1.427 2.243c.132.715.04 1.454-.275 2.123l-3.273 7.004zm-8.403 17.996a3.553 3.553 0 0 1-3.21 2.043 3.537 3.537 0 0 1-1.49-.332 3.532 3.532 0 0 1-1.714-4.697 3.553 3.553 0 0 1 3.21-2.043c.516 0 1.02.114 1.49.337a3.505 3.505 0 0 1 1.835 1.992 3.502 3.502 0 0 1-.121 2.7zm49.624-4.269L49.774 8.066l-.018-.04-.843-1.802-.286-.613c0-.005-.006-.01-.006-.017V5.59a6.902 6.902 0 0 0-3.789-4.532 6.956 6.956 0 0 0-8.639 2.288l-.16.223a6.345 6.345 0 0 0-.258.43c-.074.137-.15.28-.218.428l-.286.613a.164.164 0 0 0-.023.058L33.86 8.055l-.01.022v.006l-3.63 7.76-3.685-7.88-.854-1.83-.287-.613-.2-.43v-.005l-.287-.607A6.982 6.982 0 0 0 18.578.455c-.986 0-1.989.213-2.946.659a6.884 6.884 0 0 0-2.694 2.214c-.057.08-.121.166-.172.252a6.906 6.906 0 0 0-.201.326c-.08.149-.16.303-.234.463l-.242.51L.654 29.369A6.878 6.878 0 0 0 0 32.305a6.964 6.964 0 0 0 4.03 6.318 6.922 6.922 0 0 0 2.946.657 6.983 6.983 0 0 0 6.329-4.022l5.29-11.324.287.612.602 1.293 3.915 8.372.235.503.304.653c.223.474.493.915.796 1.315.104.132.213.258.321.384.081.097.173.189.264.274.064.07.126.126.19.183a7.01 7.01 0 0 0 1.743 1.156c.956.447 1.96.659 2.945.659A7.006 7.006 0 0 0 36.28 35.8c.069-.126.131-.257.195-.389.023-.028.034-.063.051-.097l.401-.858 4.001-8.578.889-1.894.287.618.602 1.288 4.454 9.533a6.982 6.982 0 0 0 6.328 4.028c.986 0 1.989-.211 2.946-.658a6.963 6.963 0 0 0 3.376-9.259z" mask="url(#b)"/>
        </g>
        <path fill="#000" d="M85.392 10.3v19.55h-3.325v-13.1h-.04l-5.357 9.338h-2.18l-5.358-9.338h-.04v13.1h-3.325V10.3h3.338l6.462 11.703h.053l6.434-11.702zM87.699 21.815V10.301h3.324V21.56c0 3.104 1.655 5.36 4.455 5.36 2.625 0 4.496-1.988 4.496-5.36V10.3h3.324v11.515c0 5.066-2.934 8.25-7.82 8.25-4.63 0-7.78-2.983-7.78-8.25M108.929 19.894h3.176c2.68 0 3.971-1.37 3.971-3.319 0-2.056-1.346-3.292-3.742-3.292h-3.405v6.61zm7.309 9.955l-4.67-6.973h-2.64v6.973h-3.324V10.3h7.228c4.644 0 6.69 2.7 6.69 6.342 0 3.211-1.642 5.147-4.294 5.885v.054l5.007 7.269h-3.997zM128.419 30.064c-2.504 0-5.047-.953-7.107-3.063l2.1-2.58c1.427 1.72 3.351 2.58 5.02 2.58 2.154 0 3.257-.94 3.257-2.392 0-1.692-1.305-2.243-3.782-3.117-2.96-1.047-5.908-2.378-5.908-5.938 0-3.077 2.799-5.456 6.178-5.47 2.315-.012 4.509.848 6.488 2.407l-1.98 2.606c-1.601-1.33-3.162-2.002-4.508-2.002-1.508 0-2.706.833-2.733 2.284-.026 1.424 1.293 1.921 3.662 2.835 3.351 1.303 6.057 2.23 6.057 6.006 0 4.031-3.621 5.845-6.743 5.845h-.001zM137.212 10.3h3.325v8.734h8.856v-8.733h3.325V29.85h-3.325v-7.833h-8.856v7.833h-3.325zM155.307 10.3h12.316v2.983h-8.992v5.388h7.27v2.983h-7.27v5.213h9.57v2.983h-12.894zM170.399 10.3h12.316v2.983h-8.992v5.388h7.27v2.983h-7.27v5.213h9.57v2.983H170.4zM191.601 26.867c4.146 0 6.85-2.889 6.85-6.758 0-3.964-2.744-6.826-6.661-6.826h-2.975v13.584h2.786zm-6.11-16.567h6.232c6.204 0 10.161 4.031 10.161 9.809 0 5.764-3.796 9.741-10.081 9.741h-6.313V10.3z"/>
    </g>
</svg>
