<svg xmlns="http://www.w3.org/2000/svg" width="20" height="20" viewBox="0 0 20 20">
    <path fill="#0B8071" fill-rule="nonzero" d="M10 0C4.478 0 0 4.478 0 10c0 5.523 4.478 10 10 10 5.523 0 10-4.477 10-10 0-5.522-4.477-10-10-10zm0 2.5c3.254 0 6.003 2.096 7.041 5H2.96c1.038-2.904 3.787-5 7.041-5zm0 8.75a1.25 1.25 0 1 1 0-2.5 1.25 1.25 0 0 1 0 2.5zM2.5 10c3.416 0 6.182 3.291 6.24 7.373C5.205 16.767 2.5 13.703 2.5 10zm8.76 7.373C11.318 13.291 14.084 10 17.5 10c0 3.704-2.705 6.767-6.24 7.373z"/>
</svg>
