<svg xmlns="http://www.w3.org/2000/svg" width="112" height="112" viewBox="0 0 112 112">
    <g fill="#0B8071" fill-rule="nonzero" stroke="#0B8071" stroke-width="1.833">
        <path d="M109.167 100h-5.5V65.167a1.833 1.833 0 0 0-3.335-1.05l-25.667 36.666a1.833 1.833 0 0 0 1.502 2.884H100v5.5a1.833 1.833 0 0 0 3.667 0v-5.5h5.5a1.833 1.833 0 0 0 0-3.667zM100 100H79.687L100 70.982V100z"/>
        <path d="M76.167 107.333H54.462l20.18-23.761c.045-.055.088-.112.128-.171 3.796-5.619 2.532-13.226-2.879-17.314-6.578-4.727-15.742-3.225-20.469 3.353A14.666 14.666 0 0 0 48.667 78a1.833 1.833 0 0 0 3.666 0c0-6.075 4.924-11 11-11.001a11 11 0 0 1 6.417 2.065 9.051 9.051 0 0 1 2.017 12.22L49.103 107.98A1.833 1.833 0 0 0 50.5 111h25.667a1.833 1.833 0 0 0 0-3.667z"/>
        <path d="M50.54 98.201a1.833 1.833 0 0 0-1.763-1.9C24.859 95.412 5.66 76.25 4.73 52.332H12a1.833 1.833 0 0 0 0-3.666H4.73C5.649 24.792 24.793 5.649 48.668 4.733v5.434a1.833 1.833 0 0 0 3.666 0V4.733c23.548.91 42.553 19.557 43.912 43.083l-7.15-7.15a1.833 1.833 0 0 0-2.592 2.592l10.234 10.234c.192.233.44.414.722.526.072.022.145.04.218.053.126.046.256.077.389.094h.104c.14-.01.278-.038.411-.08.075-.01.15-.024.224-.043.248-.088.474-.23.661-.414l10.374-10.37a1.833 1.833 0 0 0-2.593-2.592l-7.328 7.322C98.61 21.71 76.941 1.064 50.63 1.026 50.584 1.024 50.546 1 50.5 1s-.084.024-.13.026C23.133 1.063 1.063 23.133 1.026 50.37c0 .046-.026.084-.026.13s.024.084.026.13C1.07 77.194 22.095 98.977 48.64 99.965h.068c.985 0 1.794-.779 1.831-1.764z"/>
        <path d="M75.13 25.87a1.833 1.833 0 0 0-2.591 0L52.837 45.567a5.742 5.742 0 0 0-4.676 0l-9.328-9.328a1.833 1.833 0 0 0-2.593 2.593l9.31 9.31a5.49 5.49 0 0 0 8.839 6.247 5.44 5.44 0 0 0 1.06-6.246L75.13 28.462a1.833 1.833 0 0 0 0-2.593zM51.798 51.795a1.876 1.876 0 0 1-2.593 0 1.833 1.833 0 1 1 2.593 0z"/>
    </g>
</svg>
