<svg xmlns="http://www.w3.org/2000/svg" xmlns:xlink="http://www.w3.org/1999/xlink" width="103" height="106" viewBox="0 0 103 106">
    <defs>
        <path id="a" d="M.828.277h120.13v107.826H.827z"/>
        <path id="c" d="M.739.774h48.748V70.34H.739z"/>
    </defs>
    <g fill="none" fill-rule="evenodd">
        <g transform="translate(-9 5.69)">
            <mask id="b" fill="#fff">
                <use xlink:href="#a"/>
            </mask>
            <path fill="#0B8071" stroke="#0B8071" stroke-width="1.304" d="M20.224 66.367c-.433-1.823-.813-3.52-1.248-5.202-.201-.777-.439-.825-1.11-.342-.307.22-.64.42-.896.692-.57.606-1.133 1.227-1.633 1.891-.263.351-.29.81.128 1.127 1.366 1.038 2.92 1.595 4.76 1.834m39.835-6.852c-1.882-1.443-3.673-2.803-5.449-4.181-.831-.645-1.66-1.297-2.446-1.994-1.032-.915-1.219-2.09-.543-3.015.644-.882 1.828-1.063 3-.31 1.538.989 3.031 2.052 4.506 3.134 2.172 1.594 4.315 3.227 6.461 4.855.94.714 1.161 1.279.674 2.349a617.853 617.853 0 0 1-5.41 11.596c-.579 1.203-2.34 1.423-3.361.532-.48-.419-.749-.967-.572-1.576.284-.984.644-1.949 1.021-2.903.355-.899.773-1.772 1.16-2.658.04-.093.053-.198.11-.416-.364.105-.66.165-.938.274-6.062 2.374-12.348 3.92-18.741 5.073a68.768 68.768 0 0 1-10.609 1.09c-.44.01-.88.074-1.316.143-.37.059-.5.284-.34.64.087.19.175.382.277.566 5.92 10.679 14.675 17.806 26.483 21.143 4.167 1.178 8.419 1.361 12.707 1.28 13.74-.259 30.087-8.995 37.033-26.06 2.418-5.94 3.145-12.08 2.916-18.407-.259-7.14-2.63-13.604-6.257-19.675-.462-.774-.927-1.558-1.273-2.386-.447-1.072-.15-1.982.677-2.504.774-.488 2.122-.385 2.72.398a41.98 41.98 0 0 1 2.632 3.916c3.571 5.96 5.394 12.477 5.987 19.352.62 7.188-.46 14.156-3.236 20.802-5.605 13.412-15.388 22.384-29.184 27.017-5.71 1.918-11.615 2.351-17.536 1.933-10.756-.76-20.093-4.949-27.978-12.323-4.701-4.397-8.369-9.536-11.076-15.36-.27-.583-.638-.79-1.23-.865-2.353-.299-4.626-.88-6.754-1.968-1.395-.714-2.438-1.753-3.19-3.128-.71-1.298-.72-2.559-.02-3.845 1.344-2.466 3.207-4.462 5.723-5.7 1.203-.593 1.635-1.26 1.649-2.601.042-4.298.52-8.556 1.72-12.71 3.164-10.953 9.48-19.638 18.87-26.092 3.822-2.627 7.94-4.672 12.423-5.934.364-.102.733-.195 1.106-.256.922-.15 1.76.288 2.14 1.096.425.907.278 1.976-.506 2.51a9.62 9.62 0 0 1-2.25 1.106c-3.295 1.143-6.435 2.606-9.401 4.437-3.235 1.997-5.98 4.577-8.566 7.323-6.203 6.589-9.607 14.514-10.724 23.397-.759 6.033-.038 12 1.703 17.834.11.37.284.478.665.483 9.065.128 17.848-1.54 26.45-4.24 2.524-.793 4.953-1.883 7.424-2.841.192-.074.37-.182.67-.33" mask="url(#b)"/>
        </g>
        <g transform="translate(44.613 -4.95)">
            <mask id="d" fill="#fff">
                <use xlink:href="#c"/>
            </mask>
            <path fill="#0B8071" stroke="#0B8071" stroke-width=".87" d="M25.044 57.484c.422-.505.807-.89 1.105-1.335 2.333-3.474 4.712-6.92 6.953-10.452 2.682-4.227 5.246-8.529 7.052-13.227.947-2.464 1.51-4.983 1.177-7.646-.937-7.486-7.942-15.76-19.25-13.914-3.73.609-6.776 2.507-9.192 5.356-3.199 3.773-4.664 8.103-3.726 13.055.473 2.5 1.638 4.764 2.75 7.028 3.132 6.38 7.017 12.308 11.038 18.15.665.964 1.344 1.918 2.093 2.985m.079 7.467c-1.317-1.768-2.597-3.434-3.823-5.14-4.312-5.995-8.522-12.064-11.925-18.633a81.706 81.706 0 0 1-3.729-8.266c-2.312-6.018-1.413-11.771 2.05-17.09 3.384-5.202 8.141-8.585 14.37-9.433 6.416-.873 12.14.759 17.013 5.231 3.544 3.253 5.687 7.188 6.52 11.87.67 3.759 0 7.353-1.417 10.853-2.18 5.382-5.085 10.375-8.172 15.271-3.245 5.146-6.838 10.047-10.501 14.9-.086.113-.188.213-.386.437" mask="url(#d)"/>
        </g>
        <path fill="#0B8071" stroke="#0B8071" stroke-width=".87" d="M69.764 24.94c1.632.009 3.023-1.352 3.05-2.984.026-1.56-1.563-3.264-3.099-3.148-1.684.128-2.952 1.552-3.003 3.13-.05 1.565 1.448 2.992 3.052 3.001m-7.418-3.12c-.11-4.68 3.998-7.398 7.556-7.43 4.005-.037 7.327 3.49 7.296 7.639-.03 4.126-3.316 7.384-7.401 7.34-4.328-.049-7.482-3.244-7.45-7.55"/>
    </g>
</svg>
