<svg xmlns="http://www.w3.org/2000/svg" width="95" height="110" viewBox="0 0 95 110">
    <g fill="#0B8071" fill-rule="nonzero">
        <path d="M51.208 69.042h-6.295a4.14 4.14 0 1 1 0-8.279h11.08a2.754 2.754 0 0 0 2.747-2.744 2.754 2.754 0 0 0-2.747-2.745h-5.197v-3.819a2.754 2.754 0 0 0-2.747-2.744 2.754 2.754 0 0 0-2.747 2.744v3.82h-.389c-5.31 0-9.637 4.322-9.637 9.627 0 5.306 4.326 9.628 9.637 9.628h6.295a4.14 4.14 0 1 1 0 8.279H39.923a2.754 2.754 0 0 0-2.747 2.744 2.754 2.754 0 0 0 2.747 2.744h5.402v3.91a2.754 2.754 0 0 0 2.747 2.745 2.754 2.754 0 0 0 2.747-2.744v-3.91h.527c5.265-.07 9.5-4.369 9.5-9.629 0-5.305-4.327-9.627-9.638-9.627z"/>
        <path d="M89.346 62.821c-2.885-6.632-6.868-13.058-11.904-19.073-6.089-7.318-12.155-12.212-15.246-14.476L73.871 7.638c.572-1.075.39-2.401-.504-3.247C70.346 1.44 67.141 0 63.57 0c-3.274 0-6.272 1.235-8.882 2.333-2.06.846-4.006 1.67-5.586 1.67a3.48 3.48 0 0 1-1.304-.23C42.349 1.783 38.16.55 34.108.55c-5.127 0-9.5 2.058-13.78 6.449a2.759 2.759 0 0 0-.32 3.43l12.59 19.004c-3.114 2.31-9.065 7.158-15.04 14.316-5.013 6.015-9.02 12.441-11.904 19.073C2.037 71.168.206 79.881.206 88.71.206 100.44 9.775 110 21.518 110h51.964c11.743 0 21.312-9.56 21.312-21.291 0-8.828-1.831-17.54-5.448-25.888zM25.867 9.285c2.656-2.287 5.197-3.293 8.241-3.293 3.251 0 6.914 1.097 11.79 2.904a9.31 9.31 0 0 0 3.182.549c2.678 0 5.242-1.052 7.691-2.081 2.358-.984 4.601-1.921 6.776-1.921 1.053 0 2.541.183 4.418 1.51L56.977 27.35H37.84L25.867 9.285zm47.615 95.226H21.518c-8.722 0-15.818-7.089-15.818-15.802 0-14.66 5.38-28.563 15.955-41.324C28.34 39.312 35.14 34.304 37.2 32.84h20.556c2.084 1.44 8.86 6.472 15.544 14.545 10.599 12.76 15.955 26.642 15.955 41.324.046 8.713-7.05 15.802-15.772 15.802z"/>
    </g>
</svg>
