<svg xmlns="http://www.w3.org/2000/svg" width="87" height="112" viewBox="0 0 87 112">
    <g fill="#0B8071" fill-rule="nonzero" stroke="#0B8071" stroke-width="1.833">
        <path d="M84.738 23.219L43.808 1.242a2.02 2.02 0 0 0-1.937.011L2.073 23.23a2.056 2.056 0 0 0-1.057 1.802v28.707c.024 23.599 13.899 44.948 35.356 54.402l5.524 2.426a2.021 2.021 0 0 0 1.621.002l6.225-2.709c21.854-9.249 36.073-30.804 36.075-54.69V25.032c0-.759-.415-1.457-1.08-1.813zm-2.996 29.95c-.005 22.24-13.246 42.307-33.596 50.914l-.013.006-5.421 2.359-4.71-2.07C18.03 95.577 5.112 75.705 5.09 53.738V26.247l37.773-20.86 38.879 20.875V53.17z"/>
        <path d="M27.83 52.408a2.027 2.027 0 0 0-2.874-.228 2.063 2.063 0 0 0-.226 2.894l10.764 12.702a2.026 2.026 0 0 0 2.834.26l25.069-20.552a2.063 2.063 0 0 0 .294-2.888 2.027 2.027 0 0 0-2.866-.297L37.3 63.583 27.83 52.408z"/>
    </g>
</svg>
