<svg xmlns="http://www.w3.org/2000/svg" width="20" height="30" viewBox="0 0 20 30">
    <path fill="#000" fill-rule="nonzero" d="M.754 13.267L14.032.732c.49-.488 1.1-.732 1.833-.732.734 0 1.344.244 1.833.732l1.548 1.444c.502.475.754 1.052.754 1.733 0 .667-.251 1.251-.754 1.752l-9.898 9.34 9.898 9.357c.503.475.754 1.053.754 1.733 0 .668-.251 1.252-.754 1.752L17.7 29.288c-.503.475-1.114.712-1.834.712s-1.33-.237-1.833-.712L.754 16.752C.251 16.252 0 15.667 0 15c0-.68.251-1.258.754-1.733z" opacity=".25"/>
</svg>
