<svg xmlns="http://www.w3.org/2000/svg" xmlns:xlink="http://www.w3.org/1999/xlink" width="130" height="38" viewBox="0 0 130 38">
    <defs>
        <path id="a" d="M0 .085h129.886v37.797H0z"/>
    </defs>
    <g fill="none" fill-rule="evenodd">
        <g transform="translate(0 .033)">
            <mask id="b" fill="#fff">
                <use xlink:href="#a"/>
            </mask>
            <path fill="#0B8071" d="M68.423 12.738V6.342c-1.032-.163-1.037-.16-1.037.734v4.941c0 .891.01.898 1.037.721zm35.247-3.623c0 .781-.043 1.546.017 2.303.03.389.182.8.39 1.135.208.336 1.253.49 1.49.234.144-.158.11-.473.161-.739-.502-.027-.986.044-1.007-.527-.03-.796-.008-1.595-.008-2.419l1.042-.066v-.678l-1.052-.074-.08-.982c-.675.021-1.13.197-.953.95l-.653.138v.64l.653.085zm-25.608 3.45l1.06.308c0-1.117.027-2.096-.007-3.072-.031-.895-.538-1.479-1.349-1.537-.469-.033-.953.038-1.421.116-.5.083-.61.368-.317.784 1.593-.407 2.007-.268 2.043.596-.676.22-1.364.366-1.97.667-.576.286-.751 1.001-.547 1.605.173.511.677.88 1.312.834.435-.032.859-.211 1.196-.3zm35.504-1.73h2.919c.318-.99-.118-2.058-.967-2.452-.856-.396-1.936-.094-2.484.731-.581.875-.658 1.815-.152 2.737.468.854 1.298 1.045 2.214.984.239-.016.478-.045.713-.089.596-.11.622-.176.336-.773-1.835.265-2.458 0-2.579-1.138zm-48.97 1.989l.948-.05c0-1.136.112-2.207-.028-3.245-.176-1.296-1.565-1.728-2.603-.901-.088.07-.17.149-.314.276l-.094-.534h-.81v4.408h.98c0-.875-.01-1.714.004-2.554.012-.736.383-1.148.998-1.15.593 0 .91.38.918 1.13.008.84.002 1.68.002 2.62zm-11.79-2.256c.006-1.353-.878-2.309-2.149-2.322-1.314-.014-2.284.991-2.273 2.356.012 1.346.92 2.298 2.193 2.297 1.294-.001 2.222-.971 2.229-2.331zm46.141 2.217c0-1.085.09-2.148-.024-3.19-.12-1.092-1.062-1.627-2.048-1.28-.309.108-.578.323-.883.5-.01-.742-.522-.458-.913-.455v4.414h.965c.012-.19.028-.343.03-.495.004-.747-.013-1.494.01-2.24.02-.58.387-.938.926-.964.549-.026.901.288.97.902.034.291.016.589.017.883.002.639 0 1.278 0 1.925h.95zM74.32 10.566c.01-1.342-.89-2.307-2.16-2.32-1.3-.013-2.242.942-2.267 2.298-.027 1.365.896 2.358 2.19 2.356 1.288-.002 2.228-.983 2.237-2.334zm19.241.013c.014-1.345-.879-2.315-2.146-2.333-1.324-.019-2.282.965-2.281 2.344 0 1.346.903 2.303 2.177 2.309 1.289.006 2.237-.972 2.25-2.32zm13.62 2.17c1.017.154 1.016.154 1.018-.746 0-.648-.015-1.297.012-1.943.026-.624.396-.979.962-.985.543-.006.859.304.928.944.03.272.017.549.018.824.002.64 0 1.279 0 1.933h1.006l-.001-2.384c0-.196.008-.395-.018-.588-.152-1.154-.936-1.784-1.956-1.53-.322.08-.608.302-.952.48V7.077c0-.894-.102-.965-1.017-.701v6.374zM53.857 8.405c.398 1.315.807 2.622 1.18 3.939.096.34.225.48.603.486.404.007.555-.152.65-.51.231-.873.5-1.736.755-2.604.364.904.63 1.802.862 2.71.08.311.234.414.544.394.28-.018.528.025.635-.36.284-1.021.623-2.027.937-3.04.107-.343.207-.689.312-1.043-.906-.106-.91-.106-1.117.674-.225.849-.444 1.7-.665 2.55-.38-.955-.65-1.895-.897-2.842-.073-.277-.153-.445-.5-.448-.347-.003-.496.115-.579.436-.15.589-.341 1.168-.518 1.75-.116.38-.236.758-.354 1.137-.299-.884-.497-1.743-.698-2.601-.19-.81-.196-.813-1.15-.628zm31.018 4.383V6.313h-.984v2.395c-1.162-.733-2.22-.598-2.83.354-.6.935-.643 1.927-.112 2.908.452.835 1.379 1.15 2.263.786.261-.108.489-.295.773-.472-.006.71.459.534.89.504zm-42.79.085c.983-.064 1.912-.03 2.798-.205 1.303-.257 2.124-1.212 2.255-2.448.135-1.267.024-2.478-1.27-3.184-1.206-.658-2.493-.497-3.783-.316v6.153zm-14.95-6.856c-2.593-.033-5.281 3.032-4.807 5.445 2.489.375 5.186-2.65 4.807-5.445zm78.424 23.802v-.706c.002-1.454-.027-2.909.017-4.362.045-1.5.902-2.269 2.4-2.248.112.001.224-.021.34-.033v-1.808c-1.465-.245-2.342.485-3.04 1.614l-.077-1.46h-1.706v9.003h2.066zM89.226 18.52c-.636.191-1.213.342-1.767.55-.124.046-.228.288-.241.448-.034.402-.012.808-.012 1.284H85.92v1.505h1.287c0 .3-.003.551 0 .802.021 1.512.011 3.024.073 4.534.081 2.014 1.695 2.918 4.063 2.096v-1.424c-.214.017-.371.027-.528.042-.964.094-1.447-.26-1.546-1.203-.055-.525-.03-1.06-.032-1.59-.003-1.073 0-2.147 0-3.3h2.224v-1.523h-2.234v-2.221zm28.262 7.263c0-.556.03-1.044-.006-1.527-.13-1.78-1.124-3.095-2.622-3.509-2.201-.607-4.239.399-5.102 2.516-1.064 2.609-.235 6.63 3.918 6.749 1.137.032 2.257-.093 3.314-.588l-.27-1.193c-1.084.07-2.075.218-3.059.18-1.432-.055-2.42-1.243-2.251-2.628h6.078zm-24.849-.263c.019.166.046.44.079.713.244 2.076 1.735 3.517 3.942 3.81 1.875.25 3.856-.879 4.606-2.626.43-1.004.505-2.047.354-3.118-.337-2.38-2.604-4.066-4.995-3.702-2.475.376-3.997 2.214-3.986 4.923zm-8.425-7.768c-1.523-.855-3.95-.87-5.427-.064-2.29 1.248-2.464 4.117-.305 5.578.618.419 1.346.68 2.019 1.02.495.251 1.04.446 1.463.786 1.137.915.836 2.604-.545 3.086-.457.16-.994.25-1.468.186-.913-.124-1.807-.38-2.737-.587-.092.297-.204.693-.338 1.083-.1.294-.03.487.272.606 1.97.773 3.959.903 5.856-.12 2.11-1.137 2.343-4.13.441-5.59-.727-.558-1.632-.892-2.454-1.332-.438-.234-.896-.443-1.3-.725-.51-.357-.726-.888-.63-1.5.1-.647.512-1.098 1.14-1.235a6.043 6.043 0 0 1 1.771-.12c.581.05 1.147.262 1.754.411l.488-1.483zm-32.6 12.087c-.226-.69-.42-1.286-.616-1.88-1.114-3.378-2.237-6.754-3.332-10.139-.133-.412-.314-.573-.752-.538-.458.037-.924.041-1.381 0-.463-.043-.66.13-.799.56-.865 2.694-1.76 5.379-2.644 8.067l-1.29 3.93c.576 0 1.074-.026 1.567.01.41.029.6-.1.71-.504.253-.928.576-1.837.847-2.76.093-.316.241-.434.586-.427 1.082.023 2.165.026 3.247 0 .398-.01.552.131.656.497.267.944.57 1.88.893 2.808.054.154.268.348.42.359.597.041 1.199.017 1.888.017zm3.857 3.651v-4.516c.094.021.14.017.164.038 1.783 1.593 4.421 1.31 5.69-.701 1.222-1.939 1.244-3.984.12-5.984-.675-1.2-1.777-1.756-3.186-1.725-1.238.027-2.216.54-3.009 1.577l-.148-1.376h-1.717V33.49h2.086zm10.63-4.583c1.902 1.877 4.995 1.246 6.095-.965.89-1.788.929-3.6.023-5.382-.832-1.637-2.519-2.368-4.288-1.794-.752.245-1.405.783-2.093 1.18l-.102-1.142h-1.7v12.667h2.065v-4.564zM31.627 14.142c-.075-.1-.12-.165-.17-.225-1.715-1.998-4.27-2.69-6.775-1.703-1.392.55-2.66.822-4.128.142-2.79-1.292-5.87-.02-7.304 2.691-1.126 2.126-1.175 4.368-.628 6.651.662 2.761 1.828 5.266 3.898 7.308 1.12 1.105 2.386 1.37 3.827.68 1.598-.767 3.18-.752 4.797-.022 1.259.568 2.498.513 3.595-.41 1.773-1.489 2.747-3.462 3.531-5.556-3.837-1.723-4.652-6.922-.643-9.556zm33.25 23.734c-19.259 0-38.518-.006-57.777.006-2.685.002-4.769-1.02-6.183-3.275a5.825 5.825 0 0 1-.909-3.136C.004 23.152-.01 14.834.014 6.515.024 3.1 2.894.245 6.36.107c.26-.01.52-.014.781-.014C45.68.092 84.217.095 122.755.085c2.71-.001 4.81 1.02 6.23 3.3.585.939.89 1.977.892 3.082.005 8.338.02 16.677-.006 25.015-.01 3.405-2.895 6.245-6.376 6.38-.36.013-.72.013-1.081.013H64.877z" mask="url(#b)"/>
        </g>
        <path fill="#0B8071" d="M66.018 25.41c.118-.63.139-1.296.372-1.881.616-1.55 2.68-1.767 3.694-.432.888 1.167.891 3.341.007 4.501-.588.772-1.5 1.078-2.454.824-.798-.212-1.408-.958-1.495-1.876-.035-.37-.006-.745-.006-1.118l-.118-.017M60.3 25.424c-.237.675-.39 1.394-.73 2.014-.483.882-1.382 1.197-2.42 1.012-.83-.147-1.516-.781-1.589-1.763a12.125 12.125 0 0 1 .15-3.023c.151-.836.834-1.313 1.72-1.413.867-.099 1.571.2 2.083.9.485.663.644 1.423.785 2.273M44.463 24.6l1.611-5.283.113-.018 1.668 5.301h-3.392zM94.735 25.37c.002-.907.174-1.766.806-2.469.985-1.096 2.544-1.009 3.402.18.86 1.192.846 3.402-.03 4.581-.971 1.306-2.778 1.29-3.6-.108-.374-.638-.494-1.42-.73-2.137l.152-.048M115.519 24.378h-4.093c-.168-1.123.859-2.33 2.02-2.395 1.254-.069 2.11.89 2.073 2.395M43.073 7.46c1.026-.058 2.069-.18 2.683.784.58.91.526 1.94 0 2.859-.577 1.011-1.608 1.013-2.683.927V7.46zM83.909 10.582c-.002.99-.392 1.536-1.095 1.535-.729-.002-1.227-.676-1.195-1.617.026-.778.418-1.32 1.018-1.408.845-.123 1.274.38 1.272 1.49M90.17 10.606c.004-.954.517-1.633 1.212-1.605.672.028 1.124.692 1.11 1.631-.014.925-.503 1.57-1.188 1.565-.695-.004-1.137-.625-1.133-1.59M70.93 10.607c.003-.954.515-1.634 1.21-1.606.672.027 1.124.69 1.11 1.63-.013.925-.502 1.57-1.187 1.567-.695-.004-1.138-.625-1.134-1.59M51.741 10.56c.003.977-.466 1.634-1.168 1.639-.704.005-1.168-.654-1.153-1.638.013-.913.524-1.576 1.203-1.56.656.015 1.116.657 1.118 1.56M115.615 10.122h-2.001c.014-.696.37-1.114.97-1.141.652-.03.964.295 1.031 1.14M78.123 10.544c.087.715.123 1.27-.53 1.551-.4.173-.81.173-1.026-.278-.199-.415-.063-.808.356-.991.35-.154.755-.183 1.2-.282"/>
    </g>
</svg>
