<svg xmlns="http://www.w3.org/2000/svg" xmlns:xlink="http://www.w3.org/1999/xlink" width="130" height="38" viewBox="0 0 130 38">
    <defs>
        <path id="a" d="M0 .084h129.886v37.798H0z"/>
    </defs>
    <g fill="none" fill-rule="evenodd">
        <g transform="translate(0 .034)">
            <mask id="b" fill="#fff">
                <use xlink:href="#a"/>
            </mask>
            <path fill="#0B8071" d="M52.429 10.829V5.29l-.644.034v5.504h.644zm3.125-.005v-4.87h1.587l-.041-.615h-3.805v.631h1.547v4.854h.712zm-8.61-4.855v4.855h.738v-4.86c.42 0 .759-.016 1.095.004.572.033.57-.248.422-.638h-3.84l.037.639h1.548zm-5.498 4.846h3.268v-.672h-2.545V8.394h2.295v-.647H42.18V5.938h2.534V5.33h-3.267v5.485zm-1.668-4.77c-.962-1.023-2.548-1.165-3.696-.406-1.21.8-1.65 2.41-1.015 3.716.627 1.294 2.125 1.905 3.61 1.473 1.279-.37 1.989-1.509 1.788-2.907h-2.7v.654h1.978c-.122.944-.665 1.515-1.52 1.668-1.038.186-2.01-.273-2.467-1.165-.453-.884-.286-1.998.49-2.637.351-.289.84-.578 1.266-.578.617-.001 1.235.26 1.973.438l.293-.256zm25.298 2.048c.005-1.668-1.258-2.928-2.932-2.926a2.911 2.911 0 0 0-2.928 2.896c-.014 1.594 1.296 2.887 2.928 2.892 1.662.005 2.927-1.23 2.932-2.862zM69.6 5.311v4.31c-.863-1.37-1.662-2.57-2.385-3.812-.319-.548-.704-.585-1.239-.457v5.46h.72v-4.49c.92 1.46 1.758 2.747 2.548 4.062.273.456.583.58 1.054.409V5.31H69.6zm31.983 22.386h1.806V15.595h-1.806v12.102zm-25.31-.019c.445 0 .844-.03 1.237.008.499.047.644-.127.64-.621-.02-3.677-.01-7.354-.01-11.031v-.586h-1.867v12.23zm9.228-2.55c-.71.968-1.63 1.283-2.728 1.032-.645-.148-1.121-.54-1.381-1.196l5.56-2.274c-.385-1.846-1.995-3.15-3.807-3.129-2.12.025-3.674 1.511-3.943 3.77-.225 1.888.899 3.668 2.725 4.318 1.852.66 3.907.018 5.01-1.6l-1.436-.92zm-28.287-1.464c-.05 2.355 1.76 4.189 4.193 4.25 2.373.061 4.318-1.772 4.358-4.108.04-2.314-1.806-4.2-4.153-4.243-2.466-.046-4.349 1.71-4.398 4.1zm-5.047-4.104c-2.409-.006-4.285 1.809-4.298 4.156-.012 2.35 1.845 4.18 4.259 4.2 2.404.018 4.287-1.808 4.29-4.161.002-2.364-1.847-4.19-4.251-4.195zm61.362-.1c.138.328.217.526.305.72 1.012 2.244 2.038 4.483 3.025 6.738.114.262.107.656-.008.92-.455 1.046-.976 2.065-1.47 3.095-.08.164-.144.334-.24.561.583 0 1.065-.035 1.54.01.443.043.63-.153.79-.52 1.17-2.667 2.358-5.328 3.541-7.99.509-1.145 1.02-2.287 1.578-3.537-.664 0-1.22.026-1.772-.01-.375-.024-.53.136-.654.45-.562 1.427-1.141 2.849-1.717 4.272-.098.241-.209.478-.36.82-.786-1.778-1.51-3.435-2.259-5.081-.081-.18-.287-.412-.454-.427-.573-.053-1.154-.02-1.845-.02zm-.778 8.224c0-1.906.012-3.785-.011-5.663-.004-.302-.134-.614-.257-.9-.825-1.927-3.536-2.745-5.66-1.713-.676.328-1.21.796-1.547 1.518l1.553.715c.977-.933 1.956-1.176 2.936-.746.69.302 1.076.868 1.05 1.387-.95-.039-1.906-.178-2.84-.09-1.29.12-2.414.64-2.867 1.972-.45 1.32.104 2.636 1.342 3.326 1.422.792 3.023.638 3.972-.385.135-.144.263-.295.465-.524l.054 1.103h1.81zm-21.1-12.11v12.109h1.828V22.99c.951 0 1.831.027 2.709-.005 2.12-.078 3.635-1.544 3.728-3.571.091-1.99-1.302-3.663-3.368-3.817-1.61-.12-3.235-.024-4.898-.024zM72.946 27.086c.205 1.309-.214 2.31-1.133 2.7-1.188.504-2.097.161-3.253-1.239l-1.501.625c.65 1.7 2.26 2.59 4.291 2.433 1.688-.13 2.987-1.29 3.317-2.997.09-.46.127-.936.13-1.405.013-2.26.007-4.52.005-6.78 0-.188-.019-.375-.029-.56H73.06l-.111.527c-1.781-1.448-3.938-.806-5.118.455-1.505 1.609-1.534 4.081-.066 5.692 1.43 1.57 3.401 1.778 5.183.55zm-27.759-4.459c-.21 1.862-1.397 3.083-3.26 3.407-2.172.377-4.262-.594-5.218-2.423-.964-1.848-.58-4.19.92-5.6a4.646 4.646 0 0 1 2.662-1.25c1.465-.182 2.769.218 3.805 1.168l1.335-1.221c-1.271-1.105-2.686-1.736-4.366-1.77-3.75-.079-7.054 3.118-6.855 6.645.255 4.514 4.676 7.409 9.044 5.933 3.08-1.04 4.285-4.135 3.682-6.626h-5.97v1.737h4.221zm-19.74 1.656c.86-.463 1.73-.908 2.576-1.393.925-.532.911-1.187-.008-1.738-.068-.041-.139-.079-.209-.117-1.437-.776-2.872-1.555-4.311-2.326-3.582-1.918-7.165-3.832-10.75-5.746-.227-.121-.455-.25-.698-.335-.612-.211-1.187.108-1.314.734-.05.248-.044.509-.045.764-.019 5.229-.036 10.458-.05 15.686 0 .254-.013.527.073.758.102.278.25.613.484.744.128.071.724.199.913.012l13.34-7.043zM64.942.09C84.22.09 103.5.097 122.779.084c2.685-.001 4.77 1.016 6.187 3.27.6.955.91 2.01.911 3.135.005 8.338.021 16.677-.007 25.015-.011 3.371-2.9 6.218-6.338 6.355-.26.01-.52.015-.781.015-38.538 0-77.076-.003-115.614.008-2.709 0-4.811-1.016-6.233-3.296a5.756 5.756 0 0 1-.894-3.08C.004 23.148-.013 14.79.017 6.432.03 3.096 2.924.246 6.324.108c.38-.015.76-.016 1.142-.016L64.942.09z" mask="url(#b)"/>
        </g>
        <path fill="#0B8071" d="M73.15 23.766c.003 1.46-.968 2.537-2.272 2.518-1.315-.02-2.322-1.104-2.323-2.503-.002-1.458.99-2.527 2.344-2.529 1.344-.002 2.247 1.007 2.25 2.514M93.493 21.244v-3.858c.953 0 1.89-.067 2.814.018.98.09 1.736 1.066 1.68 1.99-.063 1.012-.838 1.79-1.906 1.842-.836.04-1.676.008-2.588.008M108.475 26.194c-.774.001-1.344-.324-1.491-.852-.146-.52.128-1.046.704-1.35a.622.622 0 0 1 .054-.025c.932-.377 1.865-.355 2.796.001.312.12.425.298.278.638-.374.865-1.413 1.586-2.341 1.588M52.192 21.252c1.39.01 2.383 1.09 2.366 2.576-.015 1.33-1.122 2.458-2.413 2.456-1.327-.001-2.396-1.132-2.38-2.52.015-1.481 1.022-2.522 2.427-2.512M63.867 23.75c.01 1.4-1.036 2.517-2.371 2.532-1.285.015-2.407-1.11-2.432-2.439-.027-1.429 1.027-2.577 2.379-2.59 1.434-.015 2.413.994 2.424 2.497M81.077 23.615c-.045-1.104.647-2.054 1.642-2.333.855-.24 1.628.04 2.103.81l-3.745 1.523M60.002 8.103c.003-1.237.95-2.245 2.128-2.263 1.222-.019 2.23 1.03 2.217 2.305-.012 1.233-.962 2.168-2.2 2.165-1.229-.003-2.148-.95-2.145-2.207"/>
    </g>
</svg>
