<svg xmlns="http://www.w3.org/2000/svg" width="57" height="60" viewBox="0 0 57 60">
    <g fill="#666" fill-rule="nonzero">
        <path d="M17.773 55.607v1.934a2.329 2.329 0 0 0 2.33 2.333h5.99v-6.555h-5.99a2.29 2.29 0 0 0-2.33 2.288zM41.092 48.02a7.717 7.717 0 0 1-7.723 7.694h-6.394v1.765h6.394a9.484 9.484 0 0 0 9.488-9.46v-4.91h-1.765v4.91z"/>
        <path d="M36.933 46.846V36.798a2.724 2.724 0 0 0-2.747-2.764H30.63v15.63h3.556c1.547 0 2.747-1.27 2.747-2.818zM41.218 31.66v8.037a.923.923 0 0 1-.92.891h-1.6v1.891h4.407l.009-10.925a16.567 16.567 0 0 1-1.896.106zM6.176 36.798v10.077A2.83 2.83 0 0 0 8.98 49.68l3.499.027V34.034H8.984a2.775 2.775 0 0 0-2.808 2.764z"/>
        <path d="M1.89 39.697v-8.985c0-10.823 8.823-19.627 19.646-19.627 1.181 0 2.36.106 3.523.317.142-.63.321-1.25.536-1.859a21.639 21.639 0 0 0-4.043-.382C9.67 9.16 0 18.828 0 30.71V42.48h4.412v-1.89H2.809a.921.921 0 0 1-.918-.892zM51.064 14.367l-.476-.13a2.248 2.248 0 0 1-1.49-1.327.475.475 0 0 0-.428-.305H31.134v1.397l1.861.785a8.95 8.95 0 0 0 3.541.717h4.324a.888.888 0 0 1 .773 1.315l-1.986 3.601h1.156l4.014-4.613a.881.881 0 0 1 .666-.303h5.43a.577.577 0 0 0 .15-1.137zM31.566 9.202h-.432v1.638H32.5z"/>
        <path d="M41.327.12c-8.223 0-14.889 6.665-14.889 14.888 0 8.223 6.666 14.889 14.889 14.889 8.223 0 14.889-6.666 14.889-14.889C56.206 6.79 49.546.128 41.327.12zm11.935 14.808a2.345 2.345 0 0 1-2.349 2.34h-5.028l-4.015 4.614a.881.881 0 0 1-.666.303h-3.049a.875.875 0 0 1-.773-1.297l1.986-3.62h-2.832a10.678 10.678 0 0 1-4.231-.859l-2.39-1.014a.892.892 0 0 1-.545-.811V8.316a.899.899 0 0 1 .904-.879h1.81a.865.865 0 0 1 .771.434l1.666 2.97h14.15a2.231 2.231 0 0 1 2.063 1.409.488.488 0 0 0 .309.29l.475.127a2.342 2.342 0 0 1 1.744 2.261z"/>
    </g>
</svg>
