<svg xmlns="http://www.w3.org/2000/svg" width="43" height="60" viewBox="0 0 43 60">
    <g fill="#0B8071" fill-rule="nonzero">
        <path d="M21.35 45.044a2.292 2.292 0 0 0-2.29 2.29 2.293 2.293 0 0 0 2.29 2.29 2.293 2.293 0 0 0 2.29-2.29 2.292 2.292 0 0 0-2.29-2.29z"/>
        <path d="M21.35 35.126a12.164 12.164 0 0 0-8.446 3.402l2.946.843-2.027 6.222h2.023a5.783 5.783 0 0 1 5.504-4.032 5.783 5.783 0 0 1 5.504 4.032h2.023L26.85 39.37l2.947-.843a12.166 12.166 0 0 0-8.447-3.402zM15.846 49.076h-3.158l-.904 2.777-1.894-.31c1.525 4.139 5.232 7.232 9.719 7.875v-6.58a5.798 5.798 0 0 1-3.763-3.762z"/>
        <path d="M42.357 37.625L37.46 25.512a4.611 4.611 0 0 0-4.293-2.895H9.533a4.61 4.61 0 0 0-4.293 2.895L.343 37.625a3.891 3.891 0 0 0 1.101 4.442l6.712 5.662 1.242.203 2.022-6.206-1.807-.517-2.165.06-.096-3.481 1.588-.044c2.872-3.71 7.367-6.101 12.41-6.101s9.536 2.392 12.408 6.1l1.59.045-.096 3.481-2.165-.06-1.807.517 2.022 6.206 1.242-.204 6.712-5.661a3.891 3.891 0 0 0 1.1-4.442zM30.012 49.076h-3.158a5.798 5.798 0 0 1-3.762 3.762v6.58c4.486-.643 8.192-3.736 9.717-7.876l-1.893.31-.904-2.776z"/>
        <circle cx="21.35" cy="10.438" r="10.438"/>
    </g>
</svg>
