<svg xmlns="http://www.w3.org/2000/svg" xmlns:xlink="http://www.w3.org/1999/xlink" width="54" height="60" viewBox="0 0 54 60">
    <defs>
        <path id="a" d="M0 .063h29.005v44.509H0z"/>
        <path id="c" d="M.05.124h14.478v14.452H.05z"/>
        <path id="e" d="M.037.151h15.974v25.99H.037z"/>
        <path id="g" d="M.033.075h7.863v19.223H.033z"/>
    </defs>
    <g fill="none" fill-rule="evenodd">
        <g transform="translate(0 15.14)">
            <mask id="b" fill="#fff">
                <use xlink:href="#a"/>
            </mask>
            <path fill="#666" d="M28.968 20.872c-.175-.814-.367-1.623-.557-2.433-.23-.978-.48-1.952-.695-2.933-.229-1.04-.426-2.087-.64-3.13-.132-.643-.258-1.287-.405-1.926-.255-1.103-.53-2.202-.785-3.305-.263-1.137-.51-2.277-.772-3.414-.189-.821-.473-1.63-.563-2.462A1.336 1.336 0 0 0 23.225.063c-3.245.035-6.49.023-9.735.022C11.107.083 8.724.07 6.34.068c-.847 0-1.82.647-2.025 1.34-.124.42-.247.842-.342 1.27-.361 1.637-.697 3.28-1.068 4.915-.386 1.705-.808 3.403-1.202 5.106a280.024 280.024 0 0 0-.944 4.22C.517 18.046.3 19.177.072 20.306c-.246 1.208.129 1.78 1.312 1.998.085.016.17.042.253.07a1.445 1.445 0 0 0 1.866-1.053c.304-1.275.598-2.553.892-3.83.03-.128.021-.263.047-.392.187-.913.366-1.828.571-2.736.257-1.137.546-2.267.804-3.404.207-.91.385-1.827.583-2.74.272-1.253.568-2.502.817-3.76.072-.364.218-.58.583-.565.366.015.523.236.525.613.008 2.076.046 4.151.048 6.226.007 10.058.01 20.116 0 30.174-.001 1.107.246 2.097.989 2.942.372.424.8.683 1.391.707 1.413.056 1.844-.697 2.345-1.665.38-.734.456-1.553.454-2.386-.013-5.116-.01-10.233-.006-15.35 0-.906.042-.938.919-.977.823-.036 1.019.15 1.019.973-.002 3.816-.005 7.631-.006 11.447 0 1.476-.038 2.954.016 4.429.044 1.207.358 2.314 1.383 3.137.946.757 2.26.381 2.888-.466.643-.867.887-1.903.89-2.96.019-5.98.009-11.96.009-17.938h.01l.001-18.2c0-.296-.013-.661.368-.687.357-.023.559.237.608.616.052.405.14.806.232 1.204.204.895.429 1.786.627 2.682.24 1.08.453 2.167.69 3.248.26 1.18.533 2.359.798 3.538.195.868.387 1.736.577 2.604.256 1.166.501 2.334.765 3.497.217.958.856 1.81 2.01 1.45a.531.531 0 0 1 .173-.02c.985.03 1.652-.895 1.445-1.86" mask="url(#b)"/>
        </g>
        <g transform="translate(7.193 .052)">
            <mask id="d" fill="#fff">
                <use xlink:href="#c"/>
            </mask>
            <path fill="#666" d="M7.166 14.576c4.18.008 7.33-3.088 7.362-7.217.03-3.932-3.08-7.325-7.373-7.234C3.199.21.093 3.033.05 7.368c-.04 4.039 2.965 7.053 7.116 7.208" mask="url(#d)"/>
        </g>
        <g transform="translate(26.842 33.736)">
            <mask id="f" fill="#fff">
                <use xlink:href="#e"/>
            </mask>
            <path fill="#666" d="M4.596 2.52c0-1.016.827-1.843 1.843-1.843h3.133c1.016 0 1.843.827 1.843 1.843v1.03H4.596V2.52zm7.55 1.03h-.205V2.52A2.371 2.371 0 0 0 9.572.15H6.44A2.371 2.371 0 0 0 4.07 2.52v1.03h-.168A3.876 3.876 0 0 0 .037 7.416v14.096c0 1.901 1.392 3.492 3.206 3.807v.822h2.45v-.765h5.255v.765h2.45v-.975a3.878 3.878 0 0 0 2.613-3.654V7.415a3.876 3.876 0 0 0-3.865-3.864z" mask="url(#f)"/>
        </g>
        <g transform="translate(45.263 40.578)">
            <mask id="h" fill="#fff">
                <use xlink:href="#g"/>
            </mask>
            <path fill="#666" d="M3.326.601h1.486c.6 0 1.089.488 1.089 1.089v1.078a2.074 2.074 0 0 0-.185-.01H2.237V1.69c0-.6.489-1.089 1.09-1.089m3.1 2.28V1.69C6.427.8 5.702.075 4.812.075H3.326c-.89 0-1.615.724-1.615 1.615v1.13A2.187 2.187 0 0 0 .033 4.939v11.803c0 .99.67 1.83 1.578 2.093v.463h1.206v-.376h2.587v.376H6.61v-.572a2.186 2.186 0 0 0 1.286-1.984V4.939c0-.95-.617-1.761-1.47-2.058" mask="url(#h)"/>
        </g>
    </g>
</svg>
