<svg xmlns="http://www.w3.org/2000/svg" width="50" height="60" viewBox="0 0 50 60">
    <g fill="#666" fill-rule="nonzero">
        <path d="M17.212 36.561c.427.321 1.069.321 1.39-.107l2.993-2.993-1.71-.855c-1.604-.855-3.101-1.924-4.384-3.314l-4.383 2.672 6.094 4.597zM29.612 36.561l5.987-4.49-4.383-2.672c-1.283 1.39-2.673 2.458-4.383 3.314l-1.71.855 2.993 2.993c.427.214 1.069.321 1.496 0zM27.154 38.272c-.107-.107-.321-.214-.428-.321l-3.314-3.314-3.314 3.314c-.107.107-.32.214-.428.32l3.742 7.484 3.742-7.483zM14.432 13.256c-.428.214-.641.535-.641.962v5.025c0 4.81 2.78 9.3 7.055 11.439l2.032 1.069c.32.106.64.106.962 0l2.03-1.07c4.384-2.138 7.057-6.628 7.057-11.438v-4.276c0-.642-.428-1.07-1.07-1.07H28.65a4.289 4.289 0 0 1-4.276-4.276v-.534l-9.942 4.17z"/>
        <path d="M12.294 23.412a14.286 14.286 0 0 1-.641-4.276v-4.918a3.29 3.29 0 0 1 1.924-2.993L26.619 5.88V9.62c0 1.176.962 2.138 2.138 2.138h3.207c1.818 0 3.207 1.39 3.207 3.208v4.276c0 1.39-.213 2.886-.64 4.276 2.458-2.245 4.061-5.345 4.275-8.766l.214-2.673c.214-3.635-1.817-6.949-5.131-8.445l-6.2-2.673c-2.78-1.176-5.88-1.176-8.553 0l-6.2 2.673C9.62 5.13 7.59 8.445 7.803 12.08l.214 2.673c.214 3.314 1.71 6.52 4.276 8.659zM19.136 59.866h8.552v-10.69h-8.552v10.69zm2.138-8.552h4.276v2.138h-4.276v-2.138zm0 4.276h4.276v2.138h-4.276V55.59z"/>
        <path d="M39.448 54.521v-2.138h.962c1.283 0 2.245-.962 2.245-2.245 0-.962-.642-1.817-1.497-2.138l-2.352-.748-4.704 10.904-1.924-.855 9.408-21.595-3.956-2.459-6.735 5.025c-.427.32-1.069.534-1.603.641l-4.17 8.125h4.704v12.828h17.105V53.88a7.546 7.546 0 0 1-2.993.641h-4.49z"/>
        <path d="M48.641 45.22l-4.383-10.583-4.597 10.69 2.139.749c2.245.748 3.527 3.207 2.78 5.559 0 .107-.108.214-.108.214l-.32.641c2.886-.107 5.024-2.566 4.917-5.452 0-.642-.214-1.283-.428-1.818zM17.532 38.806c-.641 0-1.176-.214-1.603-.641L9.3 33.14 4.49 36.134C1.71 37.844 0 40.944 0 44.258v15.608h8.552V47.038h2.138v12.828h6.415V47.038h4.703l-4.276-8.232z"/>
    </g>
</svg>
