<svg xmlns="http://www.w3.org/2000/svg" width="20" height="30" viewBox="0 0 20 30">
    <path fill="#000" fill-rule="nonzero" d="M19.246 13.267L5.968.732C5.478.244 4.868 0 4.135 0 3.4 0 2.79.244 2.302.732L.754 2.176A2.295 2.295 0 0 0 0 3.909C0 4.576.251 5.16.754 5.66l9.898 9.34-9.898 9.357A2.295 2.295 0 0 0 0 26.091c0 .668.251 1.252.754 1.752l1.548 1.445c.502.475 1.113.712 1.833.712s1.33-.237 1.833-.712l13.278-12.536c.503-.5.754-1.085.754-1.752 0-.68-.251-1.258-.754-1.733z" opacity=".25"/>
</svg>
