<svg xmlns="http://www.w3.org/2000/svg" width="21" height="20" viewBox="0 0 21 20">
    <g fill="#FFF" fill-rule="nonzero" opacity=".75">
        <path d="M.259 6.519h4.507v13.473H.259zM19.557 7.75c-.946-1.03-2.199-1.544-3.755-1.544-.574 0-1.095.07-1.564.211-.47.14-.865.338-1.188.591-.324.254-.581.49-.772.707-.182.207-.36.447-.533.72V6.519H7.252l.014.652c.009.436.013 1.777.013 4.025 0 2.247-.009 5.18-.027 8.796h4.493v-7.519c0-.462.05-.829.15-1.1.192-.463.48-.85.868-1.163.387-.313.867-.47 1.44-.47.784 0 1.36.27 1.728.81.37.539.554 1.284.554 2.236v7.205h4.493V12.27c0-1.985-.474-3.492-1.42-4.52zM2.54.034c-.755 0-1.368.22-1.837.66C.234 1.132 0 1.687 0 2.358c0 .661.228 1.214.683 1.658.455.444 1.056.666 1.803.666h.027c.765 0 1.382-.222 1.85-.666.47-.444.7-.997.69-1.658-.009-.671-.241-1.226-.696-1.666-.455-.44-1.061-.66-1.817-.66z"/>
    </g>
</svg>
