<svg xmlns="http://www.w3.org/2000/svg" width="23" height="19" viewBox="0 0 23 19">
    <path fill="#FFF" fill-rule="nonzero" d="M23 2.26c-.847.382-1.755.64-2.71.755A4.798 4.798 0 0 0 22.366.367a9.426 9.426 0 0 1-2.998 1.163A4.672 4.672 0 0 0 15.923.017c-2.606 0-4.718 2.145-4.718 4.788 0 .375.041.742.122 1.092-3.921-.2-7.398-2.107-9.724-5.005A4.809 4.809 0 0 0 .964 3.3c0 1.662.834 3.128 2.099 3.986a4.665 4.665 0 0 1-2.137-.601v.06c0 2.32 1.627 4.256 3.784 4.696a4.712 4.712 0 0 1-1.243.168c-.305 0-.6-.03-.889-.089.601 1.904 2.343 3.289 4.407 3.327a9.377 9.377 0 0 1-5.86 2.047c-.38 0-.756-.024-1.125-.066a13.193 13.193 0 0 0 7.232 2.155c8.68 0 13.424-7.298 13.424-13.627l-.016-.62A9.502 9.502 0 0 0 23 2.26z" opacity=".75"/>
</svg>
